<svg width="21" height="14" viewBox="0 0 21 14" fill="none" xmlns="http://www.w3.org/2000/svg">
<path fill-rule="evenodd" clip-rule="evenodd" d="M0 7C0 6.44773 0.46371 6 1.03571 6H13.4643C14.0363 6 14.5 6.44773 14.5 7C14.5 7.55227 14.0363 8 13.4643 8H1.03571C0.46371 8 0 7.55227 0 7Z" fill="white"/>
<path fill-rule="evenodd" clip-rule="evenodd" d="M0 1C0 0.44772 0.36162 0 0.807687 0H20.1922C20.6384 0 21 0.44772 21 1C21 1.55228 20.6384 2 20.1922 2H0.807687C0.36162 2 0 1.55228 0 1Z" fill="white"/>
<path fill-rule="evenodd" clip-rule="evenodd" d="M0 13C0 12.4477 0.36162 12 0.807687 12H20.1922C20.6384 12 21 12.4477 21 13C21 13.5523 20.6384 14 20.1922 14H0.807687C0.36162 14 0 13.5523 0 13Z" fill="white"/>
</svg>
