<svg width="37" height="45" viewBox="0 0 37 45" fill="none" xmlns="http://www.w3.org/2000/svg">
<path d="M19.0946 21.6729V45.0002C10.2238 39.8129 2.74178 29.1227 0 17.7205L19.0946 21.6729Z" fill="url(#paint0_linear_34_482)"/>
<path d="M19.0946 45.0001L20.8883 43.9365L20.8571 20.8706L19.0946 21.6728V45.0001Z" fill="#AFB6E5"/>
<path d="M0 17.7202L1.79373 16.6611L20.8883 20.6136L19.0946 21.6727L0 17.7202Z" fill="#E5E9FF"/>
<path d="M35.9948 22.7814C33.3954 11.9831 24.814 1.88328 16.8246 0.229277C14.4255 -0.266473 12.3514 0.0580175 10.6956 1.04501L10.6823 1.02698L8.36778 2.77112L8.52356 3.0235C6.31144 5.97547 5.63935 10.8699 7.0592 16.7918L18.3512 19.1309L21.5248 24.3317V37.4646C23.2072 38.4471 24.6271 39.0149 26.225 39.3484C27.8585 39.6865 29.3406 39.6414 30.6403 39.2673L30.8762 39.6594C30.8762 39.6594 33.1017 38.0325 33.3732 37.7936L33.7159 37.5367L33.6937 37.5007C36.5601 34.7245 37.5793 29.3884 35.9948 22.7814Z" fill="url(#paint1_linear_34_482)"/>
<path d="M19.731 21.1501L5.26547 18.1531C2.66612 7.35475 7.0414 -0.0634688 15.0308 1.59053C23.0203 3.24904 31.6017 13.3443 34.1966 24.1472C36.796 34.9455 32.4207 42.3637 24.4312 40.7097C22.8333 40.3807 21.409 39.8083 19.731 38.8259V21.1501Z" fill="url(#paint2_linear_34_482)"/>
<defs>
<linearGradient id="paint0_linear_34_482" x1="-2.52627" y1="38.7739" x2="26.3366" y2="21.484" gradientUnits="userSpaceOnUse">
<stop stop-color="#AFB6E5"/>
<stop offset="0.1449" stop-color="#B6BCE8"/>
<stop offset="0.3485" stop-color="#C8CDF1"/>
<stop offset="0.5808" stop-color="#E5E9FF"/>
<stop offset="0.8551" stop-color="#F5F6FF"/>
<stop offset="1" stop-color="white"/>
</linearGradient>
<linearGradient id="paint1_linear_34_482" x1="32.6858" y1="37.4256" x2="11.0931" y2="1.43026" gradientUnits="userSpaceOnUse">
<stop offset="0.0909" stop-color="#4088EC"/>
<stop offset="0.5" stop-color="#388CD6"/>
<stop offset="0.691" stop-color="#4EC0EA"/>
<stop offset="0.798" stop-color="#58D9F3"/>
<stop offset="1" stop-color="#38A6F5"/>
</linearGradient>
<linearGradient id="paint2_linear_34_482" x1="30" y1="3.5" x2="11.1142" y2="35.2707" gradientUnits="userSpaceOnUse">
<stop stop-color="#00C7C5"/>
<stop offset="0.9995" stop-color="#9A70F4"/>
<stop offset="0.9996" stop-color="#2D9BE0"/>
<stop offset="0.9997" stop-color="#5B76F7"/>
<stop offset="0.9998" stop-color="#5277F7"/>
<stop offset="0.9999" stop-color="#7374F6"/>
<stop offset="1" stop-color="#BB6DF3"/>
</linearGradient>
</defs>
</svg>
