<svg width="49" height="50" viewBox="0 0 49 50" fill="none" xmlns="http://www.w3.org/2000/svg">
<path d="M35.5553 45.7311C42.9794 45.7311 48.9978 42.6117 48.9978 38.7638C48.9978 34.9158 42.9794 31.7964 35.5553 31.7964C28.1311 31.7964 22.1127 34.9158 22.1127 38.7638C22.1127 42.6117 28.1311 45.7311 35.5553 45.7311Z" fill="url(#paint0_radial_34_490)"/>
<path d="M28.9085 4.9157C24.7383 2.52423 20.934 2.16508 18.0829 3.50448L15.7851 4.79739V4.81007C18.6319 3.49603 22.4149 3.86784 26.5595 6.24664C35.4149 11.3253 42.5936 23.6207 42.5936 33.7105C42.5936 38.6076 40.9 42.0849 38.1468 43.7877L39.6872 42.8961C42.9127 41.4046 44.9425 37.7456 44.9425 32.3838C44.9468 22.2898 37.768 9.9944 28.9085 4.9157Z" fill="url(#paint1_linear_34_490)"/>
<path d="M26.5638 6.24662C17.7085 1.16792 10.5298 5.23257 10.5298 15.3224C10.5298 25.4122 17.7085 37.7076 26.5638 42.7863C35.4191 47.865 42.5978 43.8003 42.5978 33.7105C42.5978 23.6165 35.4191 11.3211 26.5638 6.24662Z" fill="url(#paint2_linear_34_490)"/>
<path d="M26.8021 6.11131C22.3085 3.53393 18.2489 3.31422 15.3383 5.03388C18.2319 3.4621 22.1936 3.74097 26.5638 6.24652C35.4191 11.3252 42.5978 23.6164 42.5978 33.7104C42.5978 38.6835 40.8531 42.1904 38.0234 43.8636C40.9936 42.2496 42.8361 38.6877 42.8361 33.5752C42.8361 23.4812 35.6574 11.1858 26.8021 6.11131Z" fill="white"/>
<path d="M42.5978 33.7061C42.5978 43.7959 35.4191 47.8606 26.5638 42.7819C17.7085 37.7032 10.5298 25.4078 10.5298 15.318C10.5298 5.22818 17.7085 1.16352 26.5638 6.24223C35.4191 11.3209 42.5978 23.6163 42.5978 33.7061Z" fill="url(#paint3_linear_34_490)"/>
<path d="M37.3568 42.8449C43.2426 39.4283 43.1822 28.4523 37.2219 18.3293C31.2617 8.20631 21.6586 2.76969 15.7728 6.18628C9.88701 9.60287 9.94737 20.5789 15.9076 30.7019C21.8679 40.8249 31.471 46.2615 37.3568 42.8449Z" fill="white"/>
<path d="M35.8019 40.204C40.8396 37.2797 40.7879 27.8852 35.6864 19.2207C30.5849 10.5562 22.3654 5.90286 17.3277 8.82716C12.29 11.7515 12.3417 21.146 17.4432 29.8105C22.5447 38.475 30.7642 43.1283 35.8019 40.204Z" fill="#AFB6E5"/>
<path d="M34.0515 37.2313C38.1336 34.8617 38.0909 27.2478 33.9561 20.2252C29.8213 13.2025 23.1602 9.43047 19.0781 11.8001C14.9959 14.1696 15.0387 21.7836 19.1735 28.8062C23.3083 35.8289 29.9694 39.6009 34.0515 37.2313Z" fill="white"/>
<path d="M32.3978 34.4226C35.5791 32.5759 35.5465 26.6434 32.325 21.1719C29.1035 15.7005 23.913 12.762 20.7317 14.6087C17.5504 16.4554 17.583 22.3879 20.8045 27.8593C24.026 33.3308 29.2165 36.2693 32.3978 34.4226Z" fill="#AFB6E5"/>
<path d="M30.8429 31.782C33.1761 30.4276 33.1522 26.0765 30.7894 22.0636C28.4267 18.0506 24.6198 15.8954 22.2866 17.2498C19.9534 18.6042 19.9773 22.9553 22.3401 26.9682C24.7028 30.9812 28.5097 33.1363 30.8429 31.782Z" fill="white"/>
<path d="M26.7978 41.6496C18.4191 36.8498 11.6319 25.2178 11.6319 15.673C11.6319 11.1182 13.1808 7.86057 15.7085 6.22119C13.0404 7.80565 11.3978 11.1224 11.3978 15.8167C11.3978 25.3614 18.1893 36.9892 26.5638 41.7933C30.9425 44.303 34.8829 44.4509 37.6531 42.6552C34.9 44.2946 31.0531 44.0918 26.7978 41.6496Z" fill="#AFB6E5"/>
<path d="M26.7978 36.3555C20.9851 33.026 16.2744 24.9601 16.2744 18.3392C16.2744 15.166 17.3595 12.9056 19.1255 11.7732C17.2191 12.8506 16.0404 15.1745 16.0404 18.4828C16.0404 25.1037 20.751 33.1697 26.5595 36.5034C29.5851 38.2399 32.3127 38.3413 34.2319 37.1118C32.3297 38.1892 29.6999 38.0202 26.7978 36.3555Z" fill="#CED3F4"/>
<path d="M26.7978 31.2175C23.4787 29.3162 20.7851 24.7023 20.7851 20.9207C20.7851 19.1588 21.3723 17.8828 22.3297 17.2236C21.2319 17.8363 20.551 19.1672 20.551 21.0686C20.551 24.8501 23.2446 29.4599 26.5638 31.3654C28.3383 32.3795 29.9297 32.4217 31.0276 31.6612C29.9425 32.2654 28.4489 32.164 26.7978 31.2175Z" fill="#CED3F4"/>
<path d="M29.9085 26.4345C29.9085 28.5387 28.4106 29.3879 26.5638 28.3274C24.717 27.2669 23.2191 24.7022 23.2191 22.598C23.2191 20.4938 24.717 19.6446 26.5638 20.7051C28.4106 21.7614 29.9085 24.3261 29.9085 26.4345Z" fill="url(#paint4_linear_34_490)"/>
<path opacity="0.5" d="M26.9212 24.5923C26.9212 24.7571 26.8021 24.8247 26.6574 24.7402C26.5127 24.6557 26.3936 24.4529 26.3936 24.2881C26.3936 24.1233 26.5127 24.0557 26.6574 24.1402C26.8021 24.2247 26.9212 24.4233 26.9212 24.5923Z" fill="url(#paint5_linear_34_490)"/>
<path d="M26.5638 20.7009C25.7297 20.2235 24.9638 20.1347 24.3766 20.3756C24.9297 20.2362 25.6063 20.3545 26.3383 20.777C28.1851 21.8375 29.6829 24.4022 29.6829 26.5064C29.6829 27.6599 29.2319 28.4331 28.5212 28.7246C29.3595 28.5133 29.9042 27.7021 29.9042 26.4303C29.9085 24.3262 28.4106 21.7615 26.5638 20.7009Z" fill="#BB6DF3"/>
<path d="M2.52122 38.4342L0.768025 38.1976C-0.189422 38.0709 -0.278784 36.7272 0.653131 36.4737L10.4829 33.8076L2.52122 38.4342Z" fill="url(#paint6_linear_34_490)"/>
<path d="M2.58929 38.2654L0.836102 38.0288C0.227592 37.9485 -0.0277274 37.3781 0.0999322 36.9091C-0.155387 37.3992 0.0829109 38.1091 0.768017 38.202L2.52121 38.4386L10.4829 33.812L10.0616 33.9261L2.58929 38.2654Z" fill="#5277F7"/>
<path opacity="0.7" d="M0.810587 38.0793L2.56378 38.3159L10.1723 33.8921L10.0617 33.9217L2.58931 38.2652L0.836118 38.0286C0.227608 37.9483 -0.0277114 37.3779 0.0999482 36.9089C0.0914375 36.93 0.0829269 36.9511 0.0744163 36.968C-0.048988 37.4413 0.206331 37.999 0.810587 38.0793Z" fill="#836DF3"/>
<path d="M27.2489 24.2164C27.2489 24.2502 27.2361 24.2756 27.2191 24.2883C27.2191 24.2883 27.0446 25.0868 24.8957 26.3248C21.8234 28.091 23.1936 27.153 23.1936 27.153C23.1127 27.1994 23.1638 27.098 23.0404 27.0262C22.7936 26.8825 22.5893 26.5403 22.5893 26.2572C22.5893 26.1178 22.4574 26.1178 22.5382 26.0713C22.5382 26.0713 21.0361 26.7854 24.1085 25.0192C26.2659 23.7812 27.0616 24.0263 27.0616 24.0263C27.0829 24.0136 27.1085 24.0179 27.1425 24.0348C27.1978 24.0601 27.2489 24.1488 27.2489 24.2164Z" fill="#AFB6E5"/>
<path d="M23.4276 26.8952C23.4276 27.2163 23.1978 27.3473 22.917 27.1825C22.6361 27.0219 22.4063 26.629 22.4063 26.3079C22.4063 25.9867 22.6361 25.8558 22.917 26.0205C23.1978 26.1811 23.4276 26.5741 23.4276 26.8952Z" fill="#CED3F4"/>
<path d="M23.3254 26.9079C23.3254 27.0557 23.2744 27.1656 23.1893 27.2163L1.98076 39.4525C1.8914 39.5032 1.95097 39.3891 1.8148 39.3131C1.54672 39.1568 1.32544 38.7849 1.32544 38.4765C1.32544 38.3244 1.18502 38.3244 1.27012 38.2737L22.4957 26.0332C22.585 25.9868 22.7042 25.9952 22.8361 26.0713C23.1084 26.2276 23.3254 26.5994 23.3254 26.9079Z" fill="url(#paint7_linear_34_490)"/>
<path d="M2.10418 39.1526C2.10418 39.461 1.88716 39.5835 1.61482 39.4272C1.34673 39.2709 1.12546 38.8991 1.12546 38.5906C1.12546 38.2822 1.34248 38.1597 1.61482 38.316C1.88716 38.4723 2.10418 38.8441 2.10418 39.1526Z" fill="#361CAC"/>
<path d="M2.22761 37.7963L10.3553 33.1443L4.01484 32.6288C1.63612 32.4345 0.159521 35.1386 1.6191 37.0104L2.22761 37.7963Z" fill="#5277F7"/>
<path d="M2.35527 37.7709L10.4829 33.1189L4.1425 32.6034C1.76803 32.4091 0.28718 35.1132 1.74675 36.985L2.35527 37.7709Z" fill="url(#paint8_linear_34_490)"/>
<path opacity="0.7" d="M1.8659 37.0357C0.406329 35.1639 1.88292 32.4598 4.26165 32.6541L10.4234 33.1569L10.4872 33.1189L4.1425 32.6034C1.76803 32.4091 0.28718 35.1132 1.74675 36.985L2.35952 37.7709L2.41484 37.7371L1.8659 37.0357Z" fill="#836DF3"/>
<path d="M2.74249 38.7427L2.94249 39.4567C3.47441 41.3581 6.02334 41.7341 7.09143 40.0694L10.8744 34.1667L2.74249 38.7427Z" fill="#5277F7"/>
<path d="M2.87015 38.6413L3.07015 39.3554C3.60206 41.2567 6.151 41.6328 7.21908 39.9681L11.0021 34.0654L2.87015 38.6413Z" fill="url(#paint9_linear_34_490)"/>
<path opacity="0.7" d="M7.28293 39.8497C6.21484 41.5144 3.67016 41.1384 3.13399 39.237L2.95527 38.5948L2.86591 38.6455L3.06591 39.3595C3.59782 41.2609 6.14676 41.6369 7.21484 39.9722L10.9978 34.0696L10.9851 34.078L7.28293 39.8497Z" fill="#836DF3"/>
<defs>
<radialGradient id="paint0_radial_34_490" cx="0" cy="0" r="1" gradientUnits="userSpaceOnUse" gradientTransform="translate(35.5553 38.7657) scale(13.4425 6.9658)">
<stop offset="0.1919" stop-color="#AFB6E5"/>
<stop offset="1" stop-color="white"/>
</radialGradient>
<linearGradient id="paint1_linear_34_490" x1="45.1105" y1="38.8603" x2="20.3884" y2="2.07885" gradientUnits="userSpaceOnUse">
<stop offset="0.0909" stop-color="#4088EC"/>
<stop offset="0.5" stop-color="#388CD6"/>
<stop offset="0.691" stop-color="#4EC0EA"/>
<stop offset="0.798" stop-color="#58D9F3"/>
<stop offset="1" stop-color="#38A6F5"/>
</linearGradient>
<linearGradient id="paint2_linear_34_490" x1="10.5284" y1="15.3222" x2="42.5984" y2="15.3222" gradientUnits="userSpaceOnUse">
<stop stop-color="#311B61"/>
<stop offset="0.2031" stop-color="#290F52"/>
<stop offset="0.4949" stop-color="#200041"/>
<stop offset="1" stop-color="#0F001F"/>
</linearGradient>
<linearGradient id="paint3_linear_34_490" x1="36.3092" y1="15.4917" x2="15.4549" y2="35.0755" gradientUnits="userSpaceOnUse">
<stop stop-color="#00C7C5"/>
<stop offset="0.3301" stop-color="#2D9BE0"/>
<stop offset="0.6313" stop-color="#5277F7"/>
<stop offset="0.6913" stop-color="#5B76F7"/>
<stop offset="0.7887" stop-color="#7374F6"/>
<stop offset="0.9106" stop-color="#9A70F4"/>
<stop offset="1" stop-color="#BB6DF3"/>
</linearGradient>
<linearGradient id="paint4_linear_34_490" x1="19.5335" y1="33.0786" x2="28.1596" y2="22.4199" gradientUnits="userSpaceOnUse">
<stop offset="0.00505051" stop-color="#836DF3"/>
<stop offset="0.0529" stop-color="#8C6DF3"/>
<stop offset="0.2205" stop-color="#A66DF3"/>
<stop offset="0.3713" stop-color="#B56DF3"/>
<stop offset="0.4899" stop-color="#BB6DF3"/>
<stop offset="1" stop-color="#F36DD4"/>
</linearGradient>
<linearGradient id="paint5_linear_34_490" x1="26.3939" y1="24.4394" x2="26.9206" y2="24.4394" gradientUnits="userSpaceOnUse">
<stop stop-color="#311B61"/>
<stop offset="0.2031" stop-color="#290F52"/>
<stop offset="0.4949" stop-color="#200041"/>
<stop offset="1" stop-color="#0F001F"/>
</linearGradient>
<linearGradient id="paint6_linear_34_490" x1="-0.00218818" y1="36.1228" x2="10.4804" y2="36.1228" gradientUnits="userSpaceOnUse">
<stop offset="0.00505051" stop-color="#00C7C5"/>
<stop offset="0.399" stop-color="#5277F7"/>
<stop offset="0.5195" stop-color="#6176F6"/>
<stop offset="0.7529" stop-color="#8A72F5"/>
<stop offset="1" stop-color="#BB6DF3"/>
</linearGradient>
<linearGradient id="paint7_linear_34_490" x1="11.9618" y1="32.0662" x2="12.6604" y2="33.2883" gradientUnits="userSpaceOnUse">
<stop offset="0.00505051" stop-color="#273B98"/>
<stop offset="0.2274" stop-color="#2F2BA2"/>
<stop offset="0.399" stop-color="#361CAC"/>
<stop offset="0.768" stop-color="#440B89"/>
<stop offset="1" stop-color="#4E0070"/>
</linearGradient>
<linearGradient id="paint8_linear_34_490" x1="2.05539" y1="35.5518" x2="19.7311" y2="26.7953" gradientUnits="userSpaceOnUse">
<stop offset="0.00505051" stop-color="#00C7C5"/>
<stop offset="0.399" stop-color="#5277F7"/>
<stop offset="0.5195" stop-color="#6176F6"/>
<stop offset="0.7529" stop-color="#8A72F5"/>
<stop offset="1" stop-color="#BB6DF3"/>
</linearGradient>
<linearGradient id="paint9_linear_34_490" x1="4.46304" y1="40.002" x2="14.82" y2="27.6573" gradientUnits="userSpaceOnUse">
<stop offset="0.00505051" stop-color="#00C7C5"/>
<stop offset="0.399" stop-color="#5277F7"/>
<stop offset="0.5195" stop-color="#6176F6"/>
<stop offset="0.7529" stop-color="#8A72F5"/>
<stop offset="1" stop-color="#BB6DF3"/>
</linearGradient>
</defs>
</svg>
