<svg width="52" height="42" viewBox="0 0 52 42" fill="none" xmlns="http://www.w3.org/2000/svg">
<path d="M27.9928 41.736C37.8246 41.736 45.7948 37.4748 45.7948 32.2182C45.7948 26.9617 37.8246 22.7004 27.9928 22.7004C18.1611 22.7004 10.1909 26.9617 10.1909 32.2182C10.1909 37.4748 18.1611 41.736 27.9928 41.736Z" fill="url(#paint0_radial_34_263)"/>
<path d="M25.532 39.4439C36.5207 39.4439 45.4289 30.6212 45.4289 19.7378C45.4289 8.85445 36.5207 0.0317383 25.532 0.0317383C14.5433 0.0317383 5.63513 8.85445 5.63513 19.7378C5.63513 30.6212 14.5433 39.4439 25.532 39.4439Z" fill="url(#paint1_radial_34_263)"/>
<path d="M9.55962 18.1386C9.55962 18.1386 10.1176 18.2791 10.4744 18.2519C10.8312 18.2247 10.9913 18.3379 11.563 18.7774C12.1348 19.2168 12.6242 18.6641 12.6242 18.6641C12.6242 18.6641 11.778 18.2247 11.1651 17.9257C10.5476 17.6267 9.55962 18.1386 9.55962 18.1386ZM17.9666 9.78053C17.7242 9.66727 17.4223 10.0659 17.2805 10.2788C17.1387 10.4918 17.0793 10.7319 16.9786 10.8043C16.878 10.8768 17.6098 10.9584 17.8385 10.9448C18.0672 10.9312 18.1404 10.8587 18.3234 11.0173C18.5109 11.1713 18.7945 11.0761 18.7945 10.9765C18.7945 10.8768 18.5932 10.6367 18.5795 10.4782C18.5658 10.3241 18.2228 10.3377 18.0215 10.2517C17.8248 10.1656 18.1541 9.8666 17.9666 9.78053ZM12.2537 17.74C12.2263 17.6403 11.81 17.894 11.7368 17.6403C11.6637 17.3866 11.4944 17.0469 11.4944 17.0469L11.2063 17.0333C11.1925 17.2734 11.4212 17.8849 11.8786 18.0525C12.3406 18.2202 12.2811 17.8396 12.2537 17.74ZM13.6442 19.2304C14.1611 19.2304 15.0027 19.1171 15.3915 19.3029C15.7802 19.4886 16.1919 19.8555 16.1919 19.8555C16.1919 19.8555 16.0776 19.2893 14.9478 19.0764C13.818 18.8634 12.9718 18.7094 12.9718 18.7094C12.9718 18.7094 13.1593 18.9087 13.045 19.0084C12.9306 19.1081 12.615 19.2213 12.615 19.2213L13.4292 19.4206C13.4292 19.4116 13.4841 19.2304 13.6442 19.2304ZM23.2084 25.5997C22.8516 25.3325 22.5086 25.0471 22.0054 25.0471C21.5023 25.0471 20.8437 24.5805 20.6744 24.4536C20.5006 24.3268 20.0432 24.0867 19.874 23.7152C19.7002 23.3483 18.7854 22.7367 18.5841 22.5646C18.3828 22.3924 17.7974 22.5781 17.0793 22.1115C16.3611 21.6449 16.9375 21.5317 16.0913 21.4003C15.2451 21.2735 14.9889 21.3867 14.5315 21.3414C14.0741 21.3006 13.786 20.8884 13.4155 20.8884C13.045 20.8884 12.2125 21.6268 12.025 21.7673C11.8375 21.9077 11.7963 21.8397 11.467 21.6404C11.1376 21.4411 10.9089 21.8669 10.3372 21.5996C9.76545 21.3278 10.5659 20.1092 10.5796 19.9099C10.5933 19.7106 10.3235 19.7695 9.83406 19.8238C9.34921 19.8827 8.60365 19.9235 8.60365 19.9235C8.60365 19.9235 8.64482 19.5112 8.70428 19.1715C8.76374 18.8317 9.20742 18.492 8.99244 18.2066C8.77746 17.9212 8.17827 18.1658 7.84894 18.347C7.51962 18.5327 7.56078 19.3527 6.67343 19.1534C5.78607 18.954 6.0285 17.5089 6.07423 17.2371C6.1154 16.9698 6.06051 16.7705 6.40356 16.4579C6.74661 16.1454 7.57908 16.2722 7.97702 16.2586C8.37953 16.245 8.7363 15.946 9.06562 15.86C9.39495 15.7739 9.68311 16.1001 10.0536 16.5531C10.4241 17.0061 10.1542 17.4591 10.1542 17.4591C10.1542 17.4591 10.7854 17.4999 11.0416 17.2054C11.2977 16.9064 10.8403 15.7739 10.9547 15.4477C11.069 15.1215 12.3863 14.5825 12.5007 14.3967C12.615 14.211 12.4275 13.8576 12.7431 13.2461C13.0587 12.6345 13.8729 12.8338 13.9461 12.8338C14.0193 12.8338 13.9598 12.6345 13.818 12.4352C13.6762 12.2359 13.9049 12.0682 14.1336 11.955C14.3623 11.8417 15.2222 11.5427 15.2222 11.5427C15.2222 11.5427 14.9798 11.7149 14.9935 11.955C15.0072 12.1951 15.3091 11.9278 15.7116 11.7421C16.1141 11.5563 16.8002 11.3298 16.8002 11.3298L16.6264 11.0897C16.6264 11.0897 16.2239 11.1894 15.8946 11.1305C15.5653 11.0716 15.5515 10.904 15.4646 10.5778C15.3777 10.2517 14.0193 10.7319 14.0193 10.7319C14.0193 10.7319 14.4492 10.3785 14.7785 10.2199C15.1079 10.0659 16.4389 10.1792 16.6813 10.1611C16.9237 10.1475 17.1982 9.776 17.5824 9.76241C17.9712 9.74881 18.0398 9.46342 17.9712 9.26409C17.898 9.06476 17.3125 8.87903 16.567 8.39884C15.8214 7.91864 15.4052 7.16664 15.4052 7.16664C15.4052 7.16664 15.1765 7.51999 14.9341 7.67854C14.6916 7.83257 14.3623 7.73744 14.0604 7.36596C13.7585 6.99902 13.1593 6.74081 12.7843 6.70004C12.4138 6.65927 11.5219 6.68645 11.5219 6.68645C11.5219 6.68645 11.5493 6.87218 11.5813 7.16664C11.6088 7.46563 11.2383 7.70572 11.2383 7.70572C11.2383 7.70572 11.9244 7.95941 11.9976 8.31729C12.0707 8.67064 11.0645 8.85638 11.0645 8.85638C11.0645 8.85638 11.2932 9.59479 11.1514 9.60838C11.0096 9.62197 10.5202 9.02852 10.4195 8.72954C10.3463 8.50756 9.80204 8.51209 9.22114 8.43961C6.96616 11.6288 5.63971 15.5021 5.63513 19.6879C6.14284 19.8329 6.61854 19.9235 6.82437 19.9054C7.30921 19.8646 7.11253 20.1591 8.04105 20.5169C8.97415 20.8703 9.30347 21.2553 9.54589 21.6495C9.78832 22.0481 10.6619 22.4151 11.0507 22.1614C11.4395 21.9077 11.5356 22.1614 11.7368 22.7593C11.9381 23.3528 11.4487 23.7107 11.0507 24.1229C10.6482 24.5352 10.6619 25.414 10.6619 25.8127C10.6619 26.2113 10.9364 26.1977 11.1468 26.7368C11.3618 27.2759 11.8466 28.4084 12.5373 28.8524C13.2234 29.2918 13.7997 29.6316 13.8409 30.2567C13.882 30.8819 13.3698 32.8389 13.4246 33.2511C13.4841 33.6634 13.3377 34.2432 13.0358 34.6827C12.9627 34.7914 12.9078 34.8729 12.8712 34.9409C13.6625 35.5887 14.5041 36.1685 15.3915 36.6895C15.4509 36.6442 15.5195 36.5989 15.5836 36.5536C15.8123 36.3996 15.2817 36.3135 15.2817 36.1549C15.2817 36.0009 15.4097 36.0553 15.8534 36.1414C16.2971 36.2274 16.3703 35.8424 16.5395 35.6023C16.7133 35.3622 17.3994 35.2897 17.683 35.0904C17.9712 34.891 18.3691 34.3655 18.7991 34.1255C19.229 33.8854 19.2565 33.4323 19.7459 32.8615C20.2307 32.2953 19.9197 32.2228 20.2033 31.6701C20.4915 31.1174 21.5938 30.9045 22.0237 30.7777C22.4537 30.6508 22.5406 30.0846 22.6412 29.7856C22.7419 29.4866 23.0986 29.5138 22.9568 29.4186C22.815 29.319 22.8013 28.866 22.8013 28.3994C22.8013 27.9328 23.3319 27.6066 23.7619 27.1219C24.1918 26.6417 24.0043 26.3291 23.835 25.9712C23.6704 25.6269 23.5697 25.867 23.2084 25.5997ZM10.9547 6.94919C11.005 7.00808 11.22 6.88124 11.2245 6.76799C11.2291 6.65473 11.0782 6.68192 10.9958 6.72722C10.9135 6.76799 10.8724 6.83141 10.9044 6.87671C10.941 6.92654 10.9135 6.89936 10.9547 6.94919ZM11.0828 8.39431C11.0096 8.39884 10.9958 8.4985 11.0096 8.54833C11.0233 8.59816 11.1422 8.50303 11.2566 8.50303C11.3709 8.50303 11.6728 8.45773 11.7094 8.48944C11.746 8.52115 11.8832 8.38072 11.7368 8.36259C11.595 8.34447 11.3984 8.47585 11.348 8.40337C11.3023 8.33088 11.2474 8.27652 11.1925 8.3037C11.1422 8.33088 11.1971 8.38525 11.0828 8.39431ZM11.6957 6.16548C12.1805 6.10659 13.1136 6.31951 13.4429 6.50524C13.7723 6.69098 15.0621 6.90389 15.0896 6.85859C15.117 6.81782 14.1565 6.31951 14.1565 6.31951C14.1565 6.31951 15.0438 6.54601 15.332 6.54601C15.6202 6.54601 15.5744 6.29232 15.3732 6.17907C15.1719 6.06582 14.4401 5.75324 14.7008 5.6264C14.9569 5.49955 15.3 5.89367 15.6156 5.97975C15.9312 6.06582 16.3017 5.6264 16.3154 5.52673C16.3291 5.42707 15.6293 5.24133 15.0987 5.04654C14.8975 4.96953 14.7648 4.88798 14.655 4.80191C14.5727 4.73849 14.7511 4.65242 14.6779 4.57993C14.591 4.49839 14.2525 4.43497 14.1245 4.3489C14.0147 4.27642 13.7494 4.18581 13.4292 4.09521C12.862 4.52557 12.3223 4.98765 11.8054 5.47237C11.8329 5.51314 11.8512 5.55844 11.8466 5.59468C11.8375 5.76683 11.2063 6.21984 11.6957 6.16548ZM36.5873 12.7478C36.3998 12.7885 36.5599 12.7614 36.3998 12.7885C36.2443 12.8157 36.2717 12.7161 36.2443 12.8157C36.2168 12.9154 36.3312 13.0014 36.3312 13.1283C36.3312 13.2551 36.2443 13.382 36.3449 13.382C36.4455 13.382 36.601 13.3684 36.6605 13.2959C36.72 13.2234 36.72 13.0558 36.72 12.9833C36.72 12.9108 36.7337 12.9108 36.7063 12.7704C36.6788 12.63 36.6056 12.5711 36.6056 12.5711C36.6193 12.485 36.8206 12.3582 36.6468 12.3446C36.473 12.331 36.4044 12.3854 36.4044 12.4307C36.4044 12.4714 36.505 12.6164 36.505 12.6164L36.5919 12.63C36.5873 12.6345 36.7703 12.7025 36.5873 12.7478ZM41.5272 14.3514C41.4998 14.2789 41.1567 14.2246 41.0973 14.2382C41.0378 14.2518 40.681 14.3786 40.681 14.3786C40.7817 14.3786 41.0241 14.365 41.1842 14.4194C41.3397 14.4783 41.5547 14.4194 41.5272 14.3514ZM43.6633 14.4511C43.6633 14.4511 43.8188 14.3242 43.7776 14.3242C43.7365 14.3242 43.5352 14.3514 43.4483 14.3514C43.3614 14.3514 43.2471 14.4511 43.2471 14.4511L43.1602 14.5372C43.2745 14.5961 43.4483 14.6096 43.5032 14.5961C43.5627 14.5779 43.6633 14.4511 43.6633 14.4511ZM31.0574 9.51325C30.9842 9.58573 30.8561 9.52684 30.943 9.69898C31.0437 9.89831 31.5605 9.68539 31.7755 9.6718C31.9905 9.65821 32.2466 9.53137 32.2466 9.41811C32.2466 9.30486 32.2466 9.11913 32.2878 9.07835C32.3289 9.03758 32.2878 8.82467 32.1597 8.77937C32.0316 8.7386 31.5742 8.69329 31.4873 8.76578C31.4004 8.83826 31.3593 8.9651 31.2312 8.95151C31.1031 8.93792 30.7601 9.0104 30.8881 9.19161C31.0162 9.37281 31.1306 9.44077 31.0574 9.51325ZM27.4851 4.50745C27.4851 4.50745 26.9774 4.43044 26.6755 4.47121C26.3736 4.51198 26.058 4.59806 25.9894 4.53463C25.9162 4.47121 26.2044 4.44403 26.2684 4.41232C26.3324 4.38514 26.6618 4.28548 26.5063 4.27642C26.3507 4.26736 25.9345 4.29907 26.0626 4.24924C26.1906 4.1994 26.6297 4.16316 26.4834 4.16316C26.3416 4.16316 25.6738 4.07709 25.9985 4.07256C26.3187 4.0635 26.7487 4.16316 26.9133 4.26283C27.078 4.36249 27.1924 4.42591 27.3936 4.42591C27.5949 4.42591 27.6818 4.46668 27.6863 4.35343C27.6955 4.24018 27.7732 4.19034 27.6269 4.14051C27.4851 4.09068 27.2884 4.04085 27.1558 4.00461C27.0185 3.96837 26.7258 3.85511 26.7212 3.82793C26.7121 3.80075 25.9711 3.80528 26.2913 3.71468C26.6115 3.62408 26.8859 3.62408 27.0002 3.72827C27.1146 3.83246 27.3433 3.94119 27.508 3.88229C27.6726 3.8234 27.6726 3.7781 27.5171 3.71921C27.3616 3.66032 26.9865 3.69203 26.8676 3.57878C26.7441 3.46552 26.8767 3.43834 26.8767 3.43834L27.6269 3.53801C27.6269 3.53801 27.9196 3.51535 27.9288 3.49723C27.9379 3.47458 27.8419 3.42022 27.9196 3.34321C27.9974 3.2662 27.8556 3.20278 27.7778 3.10311C27.7001 3.00345 28.0019 3.11217 28.0934 3.13935C28.1849 3.16653 28.4456 3.27526 28.3816 3.09858C28.3176 2.92191 28.2261 2.84943 28.1666 2.75882C28.1071 2.66822 28.0751 2.59574 28.1758 2.59574C28.2764 2.59574 28.6789 2.97174 28.6789 2.88567C28.6789 2.79959 28.656 2.6501 28.656 2.60933C28.656 2.56856 28.6057 2.56856 28.4319 2.48701C28.2489 2.40547 28.4959 2.41906 28.4959 2.29222C28.4959 2.16538 28.3724 2.02494 28.4593 1.91622C28.5463 1.80749 28.6743 1.82562 28.8024 1.78031C28.9305 1.73954 29.1043 1.59458 29.3101 1.57646C29.5159 1.55381 29.5617 1.51304 29.9916 1.43602C30.4216 1.35901 30.9796 1.38619 30.5588 1.33183C30.138 1.27294 29.5708 1.26841 29.3467 1.26841C29.1226 1.26841 28.6652 1.20499 28.5142 1.24576C28.3633 1.28653 28.4136 1.39525 28.162 1.30465C27.9105 1.21405 28.1758 1.15516 27.819 1.15516C27.4622 1.15516 26.8447 1.45414 26.8539 1.3273C26.863 1.20046 27.5354 1.13704 27.7275 1.09173C27.9196 1.05096 28.3496 0.969421 28.1346 0.969421C27.9196 0.969421 27.5811 0.910529 27.2976 0.910529C27.0094 0.910529 26.4834 0.96036 26.4742 0.887878C26.4651 0.815396 26.616 0.738384 26.3873 0.738384C26.1586 0.738384 25.8156 0.58889 25.5503 0.724794C25.285 0.860698 24.6355 0.674962 24.3565 0.674962C24.0775 0.674962 22.4034 0.788216 21.9871 0.788216C21.5709 0.788216 21.1135 0.810866 20.8345 0.815396C20.5555 0.824457 19.938 0.915059 20.2673 0.94224C20.5967 0.969421 21.1684 0.983011 21.0495 1.05549C20.926 1.12798 20.4411 1.14157 20.464 1.16875C20.4869 1.19593 21.0724 1.22764 20.8848 1.26841C20.6973 1.30918 20.3176 1.3726 20.1347 1.21858C19.9471 1.06455 19.8694 0.93318 19.7184 0.93318C19.6773 0.93318 19.6132 0.93318 19.5355 0.93771C19.4074 0.978481 19.2839 1.02378 19.1558 1.06455C19.2428 1.12798 19.3617 1.20046 19.2611 1.20046C19.1513 1.20046 19.0415 1.18234 18.9363 1.13704C17.683 1.57193 16.4892 2.12913 15.3686 2.79053C15.7071 2.786 15.9998 2.79053 16.288 2.81318C16.5944 2.83583 16.8323 2.85396 16.9741 2.91285C17.1158 2.97174 17.3537 3.08952 17.4132 3.20278C17.4726 3.31603 17.9437 3.71468 17.9666 3.85511C17.9895 3.99555 17.9026 4.11786 18.2182 4.11786C18.5338 4.11786 18.7991 4.02726 18.9134 4.03179C19.0278 4.04085 19.2793 4.10427 19.2839 4.20393C19.2931 4.3036 19.4394 4.48027 19.2702 4.43044C19.0964 4.38061 18.6253 4.3036 18.5018 4.33984C18.3783 4.37608 18.2959 4.43044 18.2776 4.51651C18.2639 4.60259 18.3005 4.76567 18.5292 4.72943C18.7579 4.69319 18.7716 4.56634 19.0324 4.56634C19.2885 4.56634 19.3708 4.56634 19.4028 4.64336C19.4394 4.72037 19.6956 4.73396 19.4028 4.82909C19.1101 4.91969 18.982 4.91516 18.8311 4.91516C18.6802 4.91516 18.5521 5.00124 18.5521 5.04201C18.5521 5.08278 18.5658 5.24133 18.5658 5.36818C18.5658 5.49502 18.4652 5.62187 18.5429 5.70341C18.6207 5.78042 18.7945 5.82572 18.8723 5.96616C18.95 6.10659 18.9592 6.04317 18.9729 6.15642C18.9866 6.26967 18.9226 6.27873 19.0735 6.34216C19.2245 6.40558 19.2611 6.23796 19.3434 6.49165C19.4303 6.74534 19.7596 6.80876 19.8145 6.88124C19.874 6.95372 19.7871 7.05792 20.0661 7.08057C20.3451 7.10322 20.6378 7.06698 20.8116 7.18476C20.9854 7.30707 21.2324 7.48375 21.4063 7.43392C21.5801 7.38409 21.5572 7.24818 21.6761 7.04433C21.7996 6.84047 21.7402 6.63208 21.9551 6.54148C22.1701 6.45088 22.2936 6.60037 22.3348 6.30591C22.3759 6.01599 22.0558 6.04317 22.4583 5.93897C22.8608 5.83478 22.4857 5.88914 22.9294 5.79854C23.3731 5.70794 23.6978 5.73512 23.7527 5.64452C23.8122 5.55391 24.3382 5.21868 24.6904 5.14167C25.0426 5.06466 25.1844 5.11902 25.4771 5.0556C25.7698 4.99218 26.3736 4.82909 26.5154 4.83362C26.6572 4.84268 27.0734 4.6796 27.2381 4.64789C27.4073 4.62071 27.4851 4.50745 27.4851 4.50745ZM29.9962 5.89367C30.0099 5.68076 29.9367 5.44066 29.3513 5.54032C28.7658 5.63999 28.5508 5.73965 28.2215 5.69435C27.8922 5.65358 27.3616 5.39536 27.0185 5.69435C26.767 5.91179 27.6223 6.34669 28.2215 6.40558C28.8253 6.46447 29.9825 6.10659 29.9962 5.89367ZM45.191 19.9054C45.0767 19.6426 44.601 18.9993 44.601 18.6369C44.601 18.2791 44.0292 17.672 43.9332 17.3504C43.8371 17.0287 43.5535 16.612 43.8554 16.5168C44.1619 16.4217 44.9074 17.5769 45.0767 17.9348C45.1315 18.0525 45.255 18.2836 45.3923 18.5463C45.2642 16.4262 44.7976 14.4013 44.0475 12.5122C43.9972 12.5077 43.9469 12.5031 43.9011 12.5077C43.5124 12.5348 43.2333 12.63 42.872 12.7432C42.5061 12.8565 42.1402 12.8293 42.0395 12.6662C41.9389 12.5031 41.8657 12.34 41.884 12.2812C41.9297 12.0954 42.1127 12.0184 42.1493 11.9187C42.1859 11.8191 42.5381 11.5201 42.7851 11.4521C43.0367 11.3797 43.5032 11.5563 43.5306 11.6922C43.5535 11.801 43.6267 11.7783 43.7273 11.7466C43.0412 10.2109 42.1584 8.77937 41.1156 7.47922C40.7497 7.51999 40.2602 7.65589 40.1916 7.73291C40.1002 7.83257 40.0773 7.95488 40.027 8.07267C39.9767 8.19498 39.8211 8.31276 39.8028 8.42602C39.7891 8.53927 39.876 8.48944 39.908 8.58004C39.9446 8.67064 39.5421 8.88356 39.4552 8.9651C39.3683 9.04211 39.2265 8.82467 39.0024 8.80202C38.7783 8.77937 38.5953 8.80202 38.5496 8.87903C38.5084 8.95604 38.3346 8.96963 38.1562 8.91527C37.9778 8.85638 38.1928 8.82467 38.2568 8.77937C38.3209 8.7386 38.1836 8.71595 37.9915 8.82014C37.7994 8.92433 37.6348 8.82014 37.6714 8.74313C37.7445 8.5891 37.9641 8.72048 38.1288 8.59363C38.2934 8.46679 38.4993 8.55286 38.7234 8.43961C38.9475 8.32635 38.7828 8.12703 38.7874 8.00018C38.7966 7.87334 39.1945 7.77821 39.2951 7.67401C39.3958 7.56982 39.9172 7.48828 40.1413 7.48828C40.2831 7.48828 40.6719 7.44751 41.047 7.39768C40.7588 7.0398 40.4569 6.69098 40.1413 6.35575C40.0224 6.37387 39.9218 6.36481 39.8669 6.41464C39.7937 6.47806 39.7434 6.6049 39.844 6.67739C39.9446 6.74987 40.0453 6.86765 39.9584 6.97637C39.8715 7.08057 39.6931 7.23006 39.4552 7.21194C39.2174 7.18929 39.1991 7.221 39.0847 7.18476L39.0573 7.1757C38.9429 7.11228 38.8652 6.99902 38.9429 6.84047C39.0207 6.68645 39.1488 6.58678 39.2951 6.5143C39.4369 6.44182 39.6519 6.4237 39.7617 6.40105C39.8669 6.3784 40.0041 6.36028 40.027 6.2742C40.0315 6.26514 40.0361 6.26061 40.0407 6.25155C39.5467 5.73059 39.0253 5.2368 38.4764 4.7702C38.4352 4.77473 38.3986 4.78379 38.3437 4.79285C38.1013 4.85174 38.0007 4.97859 38.1013 5.00577C38.2019 5.03295 38.0281 5.20509 37.9595 5.25945C37.8863 5.31835 37.6028 5.41348 37.5158 5.45878C37.4289 5.49955 37.3283 5.74418 37.2734 5.84384C37.2277 5.92085 37.031 6.07941 36.8801 6.26514C36.8663 6.26967 36.8572 6.2742 36.8435 6.27873C36.4044 6.45088 35.3523 6.50524 35.3935 7.16664C35.4301 7.82804 36.0064 7.86428 36.3083 7.80992C36.6148 7.75103 37.1088 7.58341 37.1088 7.58341L37.5113 8.41696C37.5113 8.41696 36.7291 7.86881 36.2306 8.24481C35.732 8.62081 36.2123 9.1146 36.2123 9.1146C36.2123 9.1146 35.1054 9.35922 34.8172 9.24597C34.529 9.13272 35.0459 8.69782 35.0459 8.69782C35.0459 8.69782 34.3415 8.66158 34.3003 8.79296C34.2637 8.92433 34.6434 9.01946 34.6434 9.01946C34.6434 9.01946 34.5107 9.09648 34.3552 9.09648C34.2043 9.09648 33.5548 8.92433 33.5136 8.79296C33.477 8.66158 33.1111 8.4985 33.1111 8.4985C33.1111 8.4985 33.3306 8.23575 33.3672 8.1678C33.4038 8.09985 33.4633 8.06361 33.4038 8.03643C33.3444 8.00924 32.8504 8.04549 32.8504 7.97753C32.8504 7.90958 33.0882 7.80539 33.0516 7.75103C33.015 7.69213 32.4616 7.73291 32.4204 7.79633C32.3838 7.86428 32.2695 8.05908 32.2009 8.09079C32.1323 8.11797 32.0362 7.98659 31.9447 8.06361C31.8487 8.14062 32.0865 8.26293 32.0957 8.31729C32.1048 8.37618 32.0774 8.56192 32.1323 8.59363C32.1917 8.62081 32.5439 8.53474 32.5348 8.63893C32.5256 8.74313 32.4204 8.84732 32.5348 8.95151C32.6491 9.0557 32.9373 9.09195 32.8961 9.1599C32.8595 9.22785 32.5622 9.29127 32.5439 9.42265C32.5256 9.55402 32.393 9.70804 32.393 9.70804L32.7269 9.83036C32.7269 9.83036 32.1643 10.1067 32.2512 10.1611C32.3381 10.2199 32.9693 10.1158 33.1202 10.1022C33.2712 10.0931 34.1128 10.1112 34.2363 9.96173C34.3598 9.81224 34.5016 9.27315 34.712 9.40452C34.9224 9.5359 34.3095 10.1701 33.9024 10.2562C33.4907 10.3423 33.2071 10.3241 33.1568 10.3423C33.1111 10.3604 33.3306 10.4918 33.1202 10.5235C32.9098 10.5506 32.489 10.6367 32.4524 10.7047C32.4158 10.7726 33.3993 10.9674 33.4724 11.3933C33.5502 11.8191 33.5868 12.1045 33.2346 12.0818C32.8824 12.0637 31.9173 12.0229 31.7343 12.0139C31.5514 12.0048 31.3318 12.032 31.3135 12.1453C31.2952 12.2585 31.4553 12.553 31.4096 12.7614C31.3638 12.9697 31.2083 13.2733 31.2175 13.3684C31.2266 13.4635 31.3913 13.4454 31.3684 13.6221C31.3501 13.8033 31.3318 13.9256 31.3318 13.9256C31.3318 13.9256 31.4553 13.9165 31.6291 13.8984C31.8029 13.8803 31.9996 13.8803 32.0682 14.0298C32.1368 14.1793 32.2695 14.1612 32.4113 14.0887C32.5531 14.0117 33.0425 14.0615 33.2209 13.9482C33.4038 13.835 33.6005 13.7489 33.6691 13.7308C33.7377 13.7127 33.9161 13.4862 33.9344 13.4092C33.9527 13.3321 33.7606 13.2008 33.9802 12.9924C34.1997 12.784 34.8309 12.5937 34.8218 12.4805C34.8126 12.3672 34.6617 12.186 34.9636 12.0728C35.27 11.9595 35.7091 12.2223 35.764 12.177C35.8235 12.1317 36.1071 12.0184 36.1848 11.9505C36.2626 11.8825 36.473 11.6379 36.7383 11.9414C37.0036 12.2449 37.246 12.6209 37.5799 12.6979C37.9138 12.7749 38.0647 12.7749 38.1608 12.9063C38.2568 13.0377 38.3529 13.0196 38.4078 13.0966C38.4672 13.1736 38.5496 13.305 38.513 13.3593C38.4764 13.4182 38.4855 13.4907 38.362 13.5405C38.2385 13.5858 37.8086 13.5405 37.6576 13.5677C37.5067 13.5949 37.4289 13.613 37.4655 13.6719C37.5021 13.7308 37.836 13.8214 37.9732 13.9075C38.1059 13.9935 38.2294 14.0026 38.2294 14.0026L38.2751 13.8803C38.2751 13.8803 38.1882 13.758 38.2385 13.7081C38.2843 13.6628 38.3895 13.5858 38.4581 13.613C38.5267 13.6402 38.6319 13.5088 38.6319 13.4816C38.6319 13.4545 38.728 13.3684 38.7737 13.3593C38.8194 13.3503 38.8972 13.2642 38.8194 13.2189C38.7417 13.1736 38.6639 13.1464 38.6776 13.0603C38.6914 12.9697 38.7142 12.8837 38.8332 12.9335C38.9521 12.9788 39.0436 13.0422 39.071 13.083C39.0984 13.1238 39.2082 13.0694 39.1854 13.006C39.1625 12.9426 39.103 12.8384 38.9658 12.8112C38.8286 12.784 38.609 12.6843 38.5862 12.6209C38.5633 12.5575 38.6685 12.4941 38.4672 12.4941C38.266 12.4941 37.9961 12.3491 37.9412 12.2041C37.8909 12.0637 37.8589 12.0456 37.7491 11.9731C37.6393 11.9006 37.4793 11.7375 37.5982 11.6243C37.7171 11.511 37.9046 11.6832 38.1196 11.8417C38.3346 12.0003 38.8194 12.1634 38.9384 12.2359C39.0573 12.3083 39.4689 12.485 39.4689 12.5666C39.4689 12.6481 39.3363 12.8882 39.4369 12.9561C39.5376 13.0241 39.7571 13.2144 39.8166 13.3457C39.8806 13.4726 39.9721 13.5315 40.0087 13.5496C40.0407 13.5677 39.9035 13.6221 39.9721 13.6855C40.0407 13.7535 40.1047 13.7036 40.0956 13.8214C40.0864 13.9392 40.091 13.9256 40.2099 13.9392C40.3289 13.9528 40.4752 14.0253 40.5027 14.0434C40.5255 14.0615 40.402 13.758 40.4615 13.758C40.521 13.758 40.4752 13.613 40.5347 13.5994C40.5941 13.5858 40.7863 13.7535 40.8183 13.6946C40.8503 13.6357 40.8915 13.536 40.8183 13.4816C40.7451 13.4318 40.6216 13.2868 40.5758 13.2415C40.5301 13.1962 40.3746 13.0241 40.4295 12.9516C40.4798 12.8791 40.5941 13.0468 40.7222 13.0014C40.8457 12.9607 40.8366 12.8112 40.9097 12.8112C40.9829 12.8112 41.0149 12.8202 41.1842 12.8202C41.3489 12.8202 41.5044 12.9154 41.5044 12.9154C41.5044 12.9154 41.3809 13.0649 41.4083 13.1691C41.4358 13.2733 41.5593 13.1962 41.5821 13.3639C41.6004 13.5315 41.5776 13.5768 41.6233 13.6221C41.669 13.6674 41.7651 13.7716 41.7742 13.8395C41.7834 13.9075 41.8566 13.9392 41.948 13.9392C42.0395 13.9392 42.1905 13.9256 42.2316 14.0162C42.2682 14.1068 42.3506 14.1612 42.4832 14.143C42.6158 14.1249 42.6158 13.9573 42.7073 13.9528C42.7988 13.9482 43.0275 14.0253 43.1693 14.1204C43.3111 14.2155 43.581 14.1702 43.6541 14.1249C43.7319 14.0796 43.7822 13.9482 43.8874 13.9845C43.9926 14.0162 44.1253 14.0162 44.1847 13.9754C44.2442 13.9347 44.3036 13.9301 44.2762 13.9935C44.2488 14.0615 44.1619 14.0842 44.171 14.1657C44.1802 14.2472 44.171 14.2744 44.1847 14.356C44.1984 14.4375 44.2076 14.587 44.1115 14.7455C44.0155 14.8996 43.924 15.4658 43.6862 15.5021C43.4483 15.5383 43.2013 15.2801 42.8811 15.3662C42.561 15.4522 42.4832 15.638 42.2362 15.6108C41.9892 15.5882 41.326 15.4115 41.2391 15.4341C41.1522 15.4568 41.0836 15.3662 41.0836 15.3345C41.0836 15.3028 40.7634 15.3345 40.6353 15.2393C40.5072 15.1442 40.155 14.895 39.8394 15.1306C39.5238 15.3662 39.629 15.4341 39.6382 15.5338C39.6473 15.6335 39.5924 15.869 39.4049 15.7875C39.2174 15.7059 38.8652 15.493 38.7005 15.5021C38.5313 15.5111 38.4123 15.3798 38.3575 15.2529C38.298 15.1261 37.9367 15.0174 37.772 15.04C37.6028 15.0627 37.4793 15.0898 37.3192 14.9585C37.1591 14.8271 36.9715 14.6957 36.9944 14.6414C37.0173 14.5915 37.3466 14.6187 37.3603 14.519C37.3741 14.4194 37.1911 14.4511 37.1454 14.3695C37.0996 14.2835 37.063 14.288 37.0173 14.2336C36.9715 14.1748 36.9304 14.1249 36.999 14.0751C37.0676 14.0253 37.1316 13.9347 37.1088 13.9075C37.0859 13.8848 36.9487 13.9981 36.9029 13.9347C36.8618 13.8712 36.8023 13.8078 36.6697 13.8259C36.537 13.8441 36.3998 13.9618 36.2168 13.9075C36.0339 13.8486 35.9744 13.8939 35.8097 13.9029C35.6451 13.912 35.6176 14.0117 35.5079 14.0117C35.3981 14.0117 35.0459 13.9211 34.7486 13.98C34.4513 14.0388 33.756 14.211 33.6097 14.3152C33.4633 14.4194 33.3581 14.4737 33.1568 14.4013C32.9556 14.3242 32.6766 14.4873 32.5988 14.4103C32.521 14.3333 32.3793 14.2201 32.3793 14.2201L32.1871 14.3016C32.1871 14.3016 32.0728 14.6595 31.6154 14.9086C31.158 15.1533 31.158 15.4387 31.1168 15.7014C31.0802 15.9642 30.9064 16.2677 30.4673 16.4398C30.0282 16.612 29.8544 17.2326 29.6074 17.3866C29.3604 17.5361 28.7475 18.3515 28.9579 18.6732C29.1683 18.9948 29.3193 19.3708 29.1089 19.9416C28.8984 20.5079 28.7292 21.2644 29.9871 22.1523C31.2495 23.0402 31.7069 23.2305 31.7069 23.2305C31.7069 23.2305 32.4113 22.7775 32.9098 22.9677C33.4084 23.158 34.1723 22.7412 34.5519 22.6642C34.9315 22.5872 35.3935 22.9496 35.5079 23.1354C35.6222 23.3256 36.6559 22.7005 36.5782 23.5521C36.5004 24.4038 36.3312 24.5941 36.4455 24.8206C36.5599 25.0471 37.0767 25.5771 37.3603 26.089C37.6485 26.6009 37.7811 26.9044 37.6668 27.0358C37.5524 27.1672 37.9138 27.3756 37.8177 27.6791C37.7217 27.9826 37.1499 28.2635 37.3009 29.1332C37.4518 30.003 37.9504 30.2658 38.083 30.9679C38.2157 31.6656 38.1013 31.9147 38.5587 32.481C39.0161 33.0473 39.2448 33.387 39.2265 33.6724C39.2174 33.8083 39.2082 33.9261 39.2311 34.0213C42.9497 30.524 45.2962 25.6179 45.4151 20.1681C45.3145 20.082 45.2276 19.996 45.191 19.9054Z" fill="url(#paint2_radial_34_263)"/>
<path d="M25.5 33.1062C11.4396 33.1062 0 27.8241 0 21.3279C0 18.5464 2.10404 15.86 5.91874 13.7535C6.08341 13.6629 6.29381 13.7218 6.38529 13.8848C6.47677 14.0479 6.41731 14.2563 6.25265 14.3469C2.66206 16.3266 0.686099 18.8046 0.686099 21.3279C0.686099 27.4481 11.8192 32.4267 25.5 32.4267C39.1808 32.4267 50.3139 27.4481 50.3139 21.3279C50.3139 18.8046 48.3379 16.3266 44.7474 14.3469C44.5827 14.2563 44.5232 14.0479 44.6147 13.8848C44.7062 13.7218 44.9166 13.6629 45.0813 13.7535C48.9005 15.8555 51.0046 18.5464 51.0046 21.3279C51 27.8241 39.5604 33.1062 25.5 33.1062Z" fill="#AFB6E5"/>
<path d="M44.8068 24.662C43.4529 25.4095 41.8932 26.0845 40.1551 26.6553C38.3346 22.9361 35.453 18.945 31.7206 15.2484C30.2112 13.7535 28.6561 12.399 27.0872 11.194C29.4245 9.6673 31.7709 8.45323 34.0305 7.62421C36.3541 6.76802 38.4398 6.37843 40.2145 6.43279C39.9996 6.20175 39.7846 5.97524 39.5604 5.7578C37.8543 5.8031 35.915 6.21081 33.7926 6.98546C31.4233 7.85525 28.9625 9.13728 26.5154 10.7591C23.2267 8.31279 19.9106 6.54151 16.91 5.55847C16.9192 5.48146 16.9329 5.40898 16.9329 5.33197C16.9329 4.43953 16.2057 3.71924 15.3046 3.71924C14.591 3.71924 13.9873 4.17678 13.7677 4.811C13.4018 4.76117 13.0404 4.71587 12.6928 4.69775C12.455 4.89707 12.2171 5.10546 11.9884 5.31384C12.5282 5.30931 13.0953 5.35462 13.6854 5.43616C13.7403 6.27876 14.4401 6.94469 15.3046 6.94469C15.8992 6.94469 16.4161 6.62758 16.6996 6.15645C19.563 7.09872 22.7465 8.80658 25.9254 11.1577C23.46 12.8429 21.0129 14.8679 18.7031 17.1556C17.2577 18.5871 15.9221 20.0685 14.7054 21.577C14.4401 21.3867 14.1153 21.2735 13.7631 21.2735C12.8621 21.2735 12.1348 21.9983 12.1348 22.8862C12.1348 23.4027 12.3818 23.8557 12.7614 24.1501C12.1577 25.0063 11.5951 25.867 11.0782 26.7232C9.2852 26.1479 7.67516 25.4639 6.28009 24.6983C6.35327 24.9837 6.43561 25.2691 6.52251 25.5499C7.78493 26.2023 9.19372 26.7867 10.7352 27.294C10.0719 28.4402 9.49561 29.5772 9.00619 30.7007C9.15713 30.9227 9.31265 31.1401 9.47274 31.353C10.0033 30.0891 10.6483 28.8026 11.403 27.507C15.4464 28.7527 20.2948 29.4776 25.5091 29.4776C29.2735 29.4776 32.8458 29.0925 36.0659 28.413C36.3449 28.9113 36.8709 29.2511 37.4884 29.2511C38.3849 29.2511 39.1122 28.5353 39.1168 27.6474C39.3455 27.5794 39.5833 27.516 39.8074 27.4481C40.1093 28.0959 40.3883 28.7437 40.6262 29.3779C40.9281 30.1843 41.1659 30.9589 41.3489 31.7019C41.5181 31.4799 41.6828 31.2534 41.8474 31.0269C41.5181 29.8173 41.047 28.5489 40.4432 27.2397C41.9526 26.7323 43.334 26.1524 44.5735 25.5092C44.6467 25.2283 44.7291 24.9474 44.8068 24.662ZM38.9796 27.0086C38.7326 26.4333 38.1517 26.0256 37.4793 26.0256C36.5782 26.0256 35.8509 26.7504 35.8509 27.6383C35.8509 27.6836 35.8601 27.7289 35.8647 27.7742C32.7086 28.4266 29.2004 28.798 25.5 28.798C20.4137 28.798 15.6796 28.1095 11.7369 26.9271C12.24 26.0981 12.7843 25.2691 13.3698 24.4446C13.4933 24.4718 13.6168 24.4944 13.7494 24.4944C14.6505 24.4944 15.3778 23.7696 15.3778 22.8817C15.3778 22.5872 15.2909 22.3154 15.1536 22.0799C16.3749 20.5623 17.7196 19.0673 19.1742 17.6267C21.5115 15.3118 23.9906 13.2688 26.4834 11.5835C28.0843 12.8067 29.6806 14.1929 31.2312 15.7241C34.7989 19.2576 37.6668 23.1263 39.5147 26.8546C39.3409 26.909 39.1534 26.9588 38.9796 27.0086Z" fill="#CED3F4"/>
<path d="M6.57742 14.8589C6.51796 14.646 6.47222 14.4376 6.42648 14.2292C6.32585 14.5735 6.23437 14.9178 6.15204 15.2712C6.2115 15.2893 6.27554 15.2938 6.33957 15.2802C6.52253 15.2304 6.62773 15.0401 6.57742 14.8589Z" fill="#CED3F4"/>
<path d="M38.2569 41.0476C36.1711 41.0476 33.724 40.4904 31.0574 39.3805C30.8836 39.308 30.8013 39.1087 30.8744 38.9366C30.9476 38.7644 31.1535 38.6829 31.3227 38.7554C36.5416 40.9343 40.8137 40.9162 43.0458 38.7055C45.127 36.6443 45.3008 32.907 43.5307 28.1866C41.7285 23.3756 38.1425 18.1523 33.4222 13.4818C28.7064 8.81119 23.4326 5.25504 18.575 3.47017C13.8043 1.71701 10.0353 1.88915 7.95418 3.95036C6.18862 5.69899 5.79525 8.76136 6.84727 12.5712C6.89759 12.7524 6.78781 12.9381 6.60485 12.988C6.42189 13.0378 6.23436 12.9291 6.18404 12.7479C5.04512 8.62999 5.4888 5.42266 7.46476 3.46564C9.74718 1.2051 13.7769 0.978598 18.8128 2.82689C23.7619 4.64347 29.1226 8.25399 33.907 12.9925C38.6914 17.731 42.3369 23.0403 44.171 27.9419C46.0372 32.9296 45.8085 36.9207 43.5261 39.1812C42.2774 40.427 40.4661 41.0476 38.2569 41.0476Z" fill="url(#paint3_linear_34_263)"/>
<path d="M12.7432 41.0476C10.5339 41.0476 8.72262 40.4269 7.46935 39.1857C5.18693 36.9251 4.95823 32.9341 6.82442 27.9464C8.65859 23.0448 12.3041 17.7355 17.0885 12.997C27.0323 3.15301 38.8927 -1.12343 43.5307 3.47012C45.4792 5.39996 45.9366 8.55293 44.8572 12.5893C44.8068 12.7705 44.6239 12.8792 44.4363 12.8294C44.2534 12.7795 44.1436 12.5938 44.1939 12.4126C45.2094 8.62088 44.8114 5.69442 43.0459 3.94579C38.6777 -0.380489 27.2519 3.89595 17.5779 13.4772C12.8621 18.1477 9.2715 23.371 7.46935 28.182C5.69922 32.9069 5.87303 36.6397 7.95419 38.7009C10.1726 40.8981 14.4172 40.9298 19.6041 38.7825C19.778 38.71 19.9792 38.7915 20.0524 38.9637C20.1256 39.1358 20.0433 39.3352 19.8694 39.4076C17.2302 40.5039 14.8106 41.0476 12.7432 41.0476Z" fill="#AFB6E5"/>
<path d="M25.5 33.1062C11.4396 33.1062 0 27.8241 0 21.3279C0 18.5464 2.10404 15.86 5.92332 13.7535C6.08798 13.6629 6.29839 13.7218 6.38987 13.8848C6.48135 14.0479 6.42188 14.2563 6.25722 14.3469C2.66206 16.3266 0.686099 18.8046 0.686099 21.3279C0.686099 27.4481 11.8192 32.4267 25.5 32.4267C39.1808 32.4267 50.3139 27.4481 50.3139 21.3279C50.3139 18.8046 48.3379 16.3266 44.7474 14.3469C44.5827 14.2563 44.5232 14.0479 44.6147 13.8848C44.7062 13.7218 44.9166 13.6629 45.0813 13.7535C48.9005 15.8555 51.0046 18.5464 51.0046 21.3279C51 27.8241 39.5604 33.1062 25.5 33.1062Z" fill="url(#paint4_linear_34_263)"/>
<path d="M12.7432 41.0475C10.5339 41.0475 8.72262 40.4268 7.46935 39.1856C5.18693 36.925 4.95823 32.934 6.82442 27.9463C8.65859 23.0447 12.3041 17.7354 17.0885 12.9969C21.8728 8.25838 27.2336 4.64787 32.1826 2.83129C37.2186 0.982993 41.2483 1.2095 43.5307 3.47003C45.4792 5.39987 45.9366 8.55284 44.8572 12.5892C44.8114 12.7704 44.6239 12.8791 44.4363 12.8293C44.2534 12.7795 44.1436 12.5937 44.1939 12.4125C45.2094 8.62079 44.8114 5.69433 43.0459 3.9457C40.9647 1.88449 37.1911 1.71234 32.425 3.4655C27.5675 5.25038 22.2937 8.802 17.5779 13.4771C12.8621 18.1522 9.2715 23.3709 7.46935 28.1819C5.69922 32.9068 5.87303 36.6397 7.95419 38.7009C10.1726 40.898 14.4172 40.9252 19.6041 38.7824C19.778 38.7099 19.9792 38.7915 20.0524 38.9636C20.1256 39.1358 20.0433 39.3351 19.8694 39.4076C17.2302 40.5039 14.8106 41.0475 12.7432 41.0475Z" fill="url(#paint5_linear_34_263)"/>
<path d="M11.3206 22.3471C12.4574 22.3471 13.3789 21.4344 13.3789 20.3086C13.3789 19.1827 12.4574 18.27 11.3206 18.27C10.1839 18.27 9.26233 19.1827 9.26233 20.3086C9.26233 21.4344 10.1839 22.3471 11.3206 22.3471Z" fill="url(#paint6_radial_34_263)"/>
<path d="M38.6137 33.07C39.7504 33.07 40.672 32.1573 40.672 31.0315C40.672 29.9056 39.7504 28.9929 38.6137 28.9929C37.4769 28.9929 36.5554 29.9056 36.5554 31.0315C36.5554 32.1573 37.4769 33.07 38.6137 33.07Z" fill="url(#paint7_radial_34_263)"/>
<path d="M14.2159 4.07712C15.3527 4.07712 16.2742 3.16442 16.2742 2.03856C16.2742 0.912694 15.3527 0 14.2159 0C13.0792 0 12.1577 0.912694 12.1577 2.03856C12.1577 3.16442 13.0792 4.07712 14.2159 4.07712Z" fill="url(#paint8_radial_34_263)"/>
<defs>
<radialGradient id="paint0_radial_34_263" cx="0" cy="0" r="1" gradientUnits="userSpaceOnUse" gradientTransform="translate(27.993 32.2182) scale(17.7992 9.51737)">
<stop offset="0.1919" stop-color="#AFB6E5"/>
<stop offset="1" stop-color="white"/>
</radialGradient>
<radialGradient id="paint1_radial_34_263" cx="0" cy="0" r="1" gradientUnits="userSpaceOnUse" gradientTransform="translate(19.3505 14.7516) scale(28.5998 28.3255)">
<stop offset="0.1414" stop-color="#66CCFF"/>
<stop offset="0.702" stop-color="#5277F7"/>
<stop offset="0.8013" stop-color="#5079F5"/>
<stop offset="0.8594" stop-color="#4781F0"/>
<stop offset="0.9069" stop-color="#398FE8"/>
<stop offset="0.9486" stop-color="#25A3DC"/>
<stop offset="0.9862" stop-color="#0BBCCC"/>
<stop offset="1" stop-color="#00C7C5"/>
</radialGradient>
<radialGradient id="paint2_radial_34_263" cx="0" cy="0" r="1" gradientUnits="userSpaceOnUse" gradientTransform="translate(19.7668 16.2979) scale(26.9203 26.6621)">
<stop offset="0.1414" stop-color="#E5E9FF"/>
<stop offset="0.702" stop-color="#AFB6E5"/>
<stop offset="0.8368" stop-color="#B1B8E6"/>
<stop offset="0.9156" stop-color="#BAC0EA"/>
<stop offset="0.9798" stop-color="#C8CDF1"/>
<stop offset="1" stop-color="#CED3F4"/>
</radialGradient>
<linearGradient id="paint3_linear_34_263" x1="6.37857" y1="6.14952" x2="45.7755" y2="36.5278" gradientUnits="userSpaceOnUse">
<stop stop-color="#CDD2F3"/>
<stop offset="0.2525" stop-color="#E5E9FF"/>
<stop offset="0.3114" stop-color="#EFF2FF"/>
<stop offset="0.3737" stop-color="white"/>
<stop offset="0.4884" stop-color="#EBEDF9"/>
<stop offset="0.7215" stop-color="#B9BFE8"/>
<stop offset="0.7626" stop-color="#AFB6E5"/>
<stop offset="0.9091" stop-color="#AFB6E5"/>
<stop offset="1" stop-color="#AFB6E5"/>
</linearGradient>
<linearGradient id="paint4_linear_34_263" x1="44.9353" y1="17.4111" x2="0.497168" y2="27.7921" gradientUnits="userSpaceOnUse">
<stop stop-color="#CDD2F3"/>
<stop offset="0.2525" stop-color="#E5E9FF"/>
<stop offset="0.3114" stop-color="#EFF2FF"/>
<stop offset="0.3737" stop-color="white"/>
<stop offset="0.4884" stop-color="#EBEDF9"/>
<stop offset="0.7215" stop-color="#B9BFE8"/>
<stop offset="0.7626" stop-color="#AFB6E5"/>
<stop offset="0.9091" stop-color="#AFB6E5"/>
<stop offset="1" stop-color="#AFB6E5"/>
</linearGradient>
<linearGradient id="paint5_linear_34_263" x1="15.3586" y1="39.5948" x2="35.2957" y2="1.60933" gradientUnits="userSpaceOnUse">
<stop stop-color="#CDD2F3"/>
<stop offset="0.2525" stop-color="#E5E9FF"/>
<stop offset="0.3114" stop-color="#EFF2FF"/>
<stop offset="0.3737" stop-color="white"/>
<stop offset="0.4884" stop-color="#EBEDF9"/>
<stop offset="0.7215" stop-color="#B9BFE8"/>
<stop offset="0.7626" stop-color="#AFB6E5"/>
<stop offset="0.9091" stop-color="#AFB6E5"/>
<stop offset="1" stop-color="#AFB6E5"/>
</linearGradient>
<radialGradient id="paint6_radial_34_263" cx="0" cy="0" r="1" gradientUnits="userSpaceOnUse" gradientTransform="translate(10.8633 20.0065) scale(2.0583 2.03856)">
<stop stop-color="#F36DD4"/>
<stop offset="0.3893" stop-color="#CF6DE8"/>
<stop offset="0.5909" stop-color="#BB6DF3"/>
<stop offset="0.7313" stop-color="#A259DC"/>
<stop offset="0.8972" stop-color="#8A46C7"/>
<stop offset="1" stop-color="#813FBF"/>
</radialGradient>
<radialGradient id="paint7_radial_34_263" cx="0" cy="0" r="1" gradientUnits="userSpaceOnUse" gradientTransform="translate(38.1548 30.7279) scale(2.0583 2.03856)">
<stop stop-color="#F36DD4"/>
<stop offset="0.3893" stop-color="#CF6DE8"/>
<stop offset="0.5909" stop-color="#BB6DF3"/>
<stop offset="0.7313" stop-color="#A259DC"/>
<stop offset="0.8972" stop-color="#8A46C7"/>
<stop offset="1" stop-color="#813FBF"/>
</radialGradient>
<radialGradient id="paint8_radial_34_263" cx="0" cy="0" r="1" gradientUnits="userSpaceOnUse" gradientTransform="translate(13.7602 1.73499) scale(2.0583 2.03856)">
<stop stop-color="#F36DD4"/>
<stop offset="0.3893" stop-color="#CF6DE8"/>
<stop offset="0.5909" stop-color="#BB6DF3"/>
<stop offset="0.7313" stop-color="#A259DC"/>
<stop offset="0.8972" stop-color="#8A46C7"/>
<stop offset="1" stop-color="#813FBF"/>
</radialGradient>
</defs>
</svg>
