<svg width="41" height="51" viewBox="0 0 41 51" fill="none" xmlns="http://www.w3.org/2000/svg">
<path d="M35.4469 37.1121L21.0669 45.5603L30.0742 49.5491L40.4151 43.8522L35.4469 37.1121Z" fill="url(#paint0_linear_34_354)"/>
<g opacity="0.95">
<path d="M4.15002 15.0962L0.00500488 17.6729L7.28405 21.914L11.4291 19.3324L4.15002 15.0962Z" fill="#E5E9FF"/>
<path d="M0 34.5111L7.28386 38.7474V21.9091L0 17.6729V34.5111Z" fill="url(#paint1_linear_34_354)"/>
<path d="M7.27905 38.7475L11.4289 36.1708V19.3325L7.27905 21.9092V38.7475Z" fill="#AFB6E5"/>
</g>
<g opacity="0.95">
<path d="M14.6207 8.50659L10.4757 11.0881L17.7547 15.3244L21.8997 12.7428L14.6207 8.50659Z" fill="#E5E9FF"/>
<path d="M10.466 40.6351L17.7499 44.8762V15.3195L10.466 11.0833V40.6351Z" fill="url(#paint2_linear_34_354)"/>
<path d="M17.7499 44.8761L21.8997 42.2945V12.7427L17.7499 15.3194V44.8761Z" fill="#AFB6E5"/>
</g>
<g opacity="0.95">
<path d="M25.0869 0L20.9419 2.58154L28.221 6.81779L32.366 4.23625L25.0869 0Z" fill="#E5E9FF"/>
<path d="M20.9369 46.7637L28.216 51V6.81776L20.9369 2.57666V46.7637Z" fill="url(#paint3_linear_34_354)"/>
<path d="M28.2159 51.0001L32.3658 48.4234V4.23633L28.2159 6.81787V51.0001Z" fill="#AFB6E5"/>
</g>
<defs>
<linearGradient id="paint0_linear_34_354" x1="30.9348" y1="44.1712" x2="36.8047" y2="41.5104" gradientUnits="userSpaceOnUse">
<stop stop-color="#E5E9FF"/>
<stop offset="0.226" stop-color="#F0F2FF"/>
<stop offset="0.6032" stop-color="#FBFCFF"/>
<stop offset="1" stop-color="white"/>
</linearGradient>
<linearGradient id="paint1_linear_34_354" x1="19.2137" y1="1.30107" x2="-1.13661" y2="35.9118" gradientUnits="userSpaceOnUse">
<stop stop-color="#00C7C5"/>
<stop offset="0.3301" stop-color="#2D9BE0"/>
<stop offset="0.6313" stop-color="#5277F7"/>
<stop offset="0.6913" stop-color="#5B76F7"/>
<stop offset="0.7887" stop-color="#7374F6"/>
<stop offset="0.9106" stop-color="#9A70F4"/>
<stop offset="1" stop-color="#BB6DF3"/>
</linearGradient>
<linearGradient id="paint2_linear_34_354" x1="25.4521" y1="4.78555" x2="7.78105" y2="40.3493" gradientUnits="userSpaceOnUse">
<stop stop-color="#00C7C5"/>
<stop offset="0.3301" stop-color="#2D9BE0"/>
<stop offset="0.6313" stop-color="#5277F7"/>
<stop offset="0.6913" stop-color="#5B76F7"/>
<stop offset="0.7887" stop-color="#7374F6"/>
<stop offset="0.9106" stop-color="#9A70F4"/>
<stop offset="1" stop-color="#BB6DF3"/>
</linearGradient>
<linearGradient id="paint3_linear_34_354" x1="34.1196" y1="8.73965" x2="14.9149" y2="44.4949" gradientUnits="userSpaceOnUse">
<stop stop-color="#00C7C5"/>
<stop offset="0.3301" stop-color="#2D9BE0"/>
<stop offset="0.6313" stop-color="#5277F7"/>
<stop offset="0.6913" stop-color="#5B76F7"/>
<stop offset="0.7887" stop-color="#7374F6"/>
<stop offset="0.9106" stop-color="#9A70F4"/>
<stop offset="1" stop-color="#BB6DF3"/>
</linearGradient>
</defs>
</svg>
