<svg width="56" height="42" viewBox="0 0 56 42" fill="none" xmlns="http://www.w3.org/2000/svg">
<path d="M33.1321 42V33.5672C36.0501 33.4201 38.2596 32.9326 39.7583 32.1057C41.2581 31.2799 42.3117 29.9382 42.9201 28.0827C43.5274 26.2272 43.8322 23.5721 43.8322 20.1174H33.1321V0H55.0787V19.1256C55.0787 27.0257 53.2246 32.8139 49.5164 36.4881C45.8071 40.1624 40.346 42 33.1321 42ZM0 42V33.5672C2.91801 33.4201 5.12635 32.9515 6.62618 32.1614C8.12602 31.3713 9.21064 30.0296 9.87889 28.1373C10.5471 26.245 10.8818 23.5721 10.8818 20.1174H0V0H22.0673V19.1256C22.0673 27.0257 20.2236 32.8139 16.5361 36.4881C12.8475 40.1624 7.33585 42 0 42Z" fill="#04BDFF"/>
</svg>
