<svg width="32" height="24" viewBox="0 0 32 24" fill="none" xmlns="http://www.w3.org/2000/svg">
<path d="M18.9326 24V19.1813C20.6 19.0972 21.8626 18.8186 22.719 18.3461C23.5761 17.8742 24.1781 17.1075 24.5258 16.0472C24.8728 14.9869 25.047 13.4698 25.047 11.4957H18.9326V0H31.4735V10.9289C31.4735 15.4432 30.414 18.7508 28.2951 20.8504C26.1755 22.9499 23.0549 24 18.9326 24ZM0 24V19.1813C1.66743 19.0972 2.92934 18.8294 3.78639 18.3779C4.64344 17.9265 5.26322 17.1598 5.64508 16.0785C6.02694 14.9971 6.2182 13.4698 6.2182 11.4957H0V0H12.6099V10.9289C12.6099 15.4432 11.5563 18.7508 9.44922 20.8504C7.34143 22.9499 4.19191 24 0 24Z" fill="#04BDFF"/>
</svg>
