<svg width="31" height="31" viewBox="0 0 31 31" fill="none" xmlns="http://www.w3.org/2000/svg">
<path d="M2.4025 13.0859L17.9141 28.5975C18.051 28.7342 18.2256 28.8268 18.4155 28.8634C18.6054 28.9 18.8019 28.8789 18.9797 28.8029L26.6522 25.5169C26.7976 25.4544 26.9255 25.3572 27.0246 25.2339C27.1238 25.1106 27.1912 24.9648 27.2211 24.8094C27.2509 24.654 27.2422 24.4937 27.1957 24.3424C27.1492 24.1911 27.0664 24.0536 26.9545 23.9417L22.2967 19.282C22.1531 19.1382 21.9678 19.0432 21.7672 19.0105C21.5665 18.9778 21.3607 19.0091 21.1788 19.0999L19.0631 20.1578L10.8403 11.935L11.9001 9.81925C11.9911 9.63756 12.0227 9.43184 11.9904 9.23121C11.958 9.03059 11.8634 8.84521 11.7199 8.70131L7.05831 4.04356C6.94631 3.93169 6.8086 3.84898 6.65723 3.80265C6.50586 3.75632 6.34545 3.74779 6.19002 3.7778C6.0346 3.80782 5.88889 3.87546 5.76566 3.97482C5.64242 4.07418 5.54542 4.20222 5.48312 4.34775L2.19518 12.0203C2.11913 12.1981 2.09805 12.3946 2.13465 12.5845C2.17125 12.7744 2.26386 12.949 2.40056 13.0859H2.4025ZM4.23343 12.1791L6.70181 6.42475L9.85606 9.58094L9.11012 11.0709L8.48625 12.3186L9.47243 13.3068L17.6932 21.5276L18.6814 22.5157L19.9291 21.8899L21.421 21.1459L24.5752 24.2982L18.8209 26.7646L4.23343 12.1791ZM15.5 9.6875V7.75C17.5554 7.75 19.5267 8.56651 20.9801 10.0199C22.4335 11.4733 23.25 13.4446 23.25 15.5H21.3125C21.3125 13.9584 20.7001 12.48 19.6101 11.3899C18.52 10.2999 17.0416 9.6875 15.5 9.6875ZM15.5 3.875V1.9375C19.097 1.9375 22.5467 3.3664 25.0901 5.90986C27.6336 8.45333 29.0625 11.903 29.0625 15.5H27.125C27.125 12.4169 25.9002 9.45999 23.7201 7.27988C21.54 5.09977 18.5831 3.875 15.5 3.875Z" fill="#04BDFF"/>
</svg>
